<?xml version="1.0" encoding="UTF-8" standalone="no"?>
<svg
   viewBox="0 0 24 24"
   version="1.1"
   id="svg148"
   sodipodi:docname="lc_imathhide.svg"
   inkscape:version="1.2.2 (b0a8486541, 2022-12-01)"
   inkscape:export-filename="../../../colibre/starmath/res/lc_imathhide.png"
   inkscape:export-xdpi="146.2132"
   inkscape:export-ydpi="146.2132"
   xmlns:inkscape="http://www.inkscape.org/namespaces/inkscape"
   xmlns:sodipodi="http://sodipodi.sourceforge.net/DTD/sodipodi-0.dtd"
   xmlns="http://www.w3.org/2000/svg"
   xmlns:svg="http://www.w3.org/2000/svg">
  <defs
     id="defs152" />
  <sodipodi:namedview
     id="namedview150"
     pagecolor="#ffffff"
     bordercolor="#666666"
     borderopacity="1.0"
     inkscape:showpageshadow="2"
     inkscape:pageopacity="0.0"
     inkscape:pagecheckerboard="0"
     inkscape:deskcolor="#d1d1d1"
     showgrid="false"
     inkscape:zoom="30.875"
     inkscape:cx="4.0323887"
     inkscape:cy="12.016194"
     inkscape:window-width="1920"
     inkscape:window-height="1131"
     inkscape:window-x="0"
     inkscape:window-y="0"
     inkscape:window-maximized="1"
     inkscape:current-layer="svg148" />
  <circle
     cx="12.005051"
     cy="12.137697"
     fill="#fafafa"
     r="4"
     id="circle142" />
  <path
     d="m 12.005004,7.1376973 c -3.2801092,0.0043 -6.2981172,1.792832 -7.8769532,4.6679687 0.128945,0.363734 0.357439,0.676587 0.65625,0.908203 1.321789,-2.7913087 4.132254,-4.5724617 7.2207032,-4.5761717 -2.2091392,0 -4.0000002,1.790861 -4.0000002,3.9999997 0,2.209139 1.790861,4 4.0000002,4 2.209139,0 4,-1.790861 4,-4 0.008,-2.079511 -1.578821,-3.8182597 -3.650391,-3.9999997 2.961312,0.134551 5.605464,1.8955647 6.871094,4.5761717 0.301515,-0.233711 0.531909,-0.55005 0.660156,-0.917969 C 18.303789,8.9233103 15.284445,7.1386423 12.005004,7.1376973 Z m 0,2 c 1.656854,0 3,1.3431457 3,2.9999997 0,1.656854 -1.343146,3 -3,3 -1.656854,0 -3.0000002,-1.343146 -3.0000002,-3 0,-1.656854 1.3431462,-2.9999997 3.0000002,-2.9999997 z"
     fill="#3a3a38"
     id="path144" />
  <path
     d="m 12.005004,10.137697 c -1.104569,0 -2,0.895431 -2,2 0,1.104569 0.895431,2 2,2 1.104569,0 2,-0.89543 2,-2 0.02896,-0.194894 0.02896,-0.392997 0,-0.587891 -0.174008,0.38903 -0.57545,0.625034 -1,0.587891 -0.552285,0 -1,-0.447715 -1,-1 -0.03682,-0.425027 0.200049,-0.826612 0.589844,-1 -0.195534,-0.02915 -0.39431,-0.02915 -0.589844,0 z"
     fill="#1e8bcd"
     id="path146" />
  <rect
     fill="#ed3d3b"
     height="1"
     ry="0.5"
     width="13.937192"
     x="-6.829227"
     y="-16.834959"
     id="rect407"
     style="stroke-width:1.66957"
     transform="rotate(135)" />
</svg>
